<svg width="160" height="160" viewBox="0 0 160 160" fill="none" xmlns="http://www.w3.org/2000/svg">
  <rect width="160" height="160" rx="36" fill="#0F172A"/>
  <path d="M80 24L124 42V74C124 103.5 105.4 130.2 80 139C54.6 130.2 36 103.5 36 74V42L80 24Z" fill="#14B8A6"/>
  <path d="M80 35L113 48.5V75.5C113 97.1 99.6 116.5 80 124C60.4 116.5 47 97.1 47 75.5V48.5L80 35Z" fill="#ECFEFF"/>
  <path d="M94.7 64.2C91.1 58.6 84.8 55 77.8 55C66.9 55 58 63.9 58 74.9C58 85.9 66.9 94.8 77.8 94.8C85 94.8 91.2 91.1 94.8 85.5" stroke="#0F172A" stroke-width="10" stroke-linecap="round"/>
  <path d="M86 80L97 91L116 68" stroke="#14B8A6" stroke-width="10" stroke-linecap="round" stroke-linejoin="round"/>
</svg>
